<svg width="50.403809" height="72.734375" viewBox="0 0 50.4038 72.7344" fill="none" xmlns="http://www.w3.org/2000/svg" xmlns:xlink="http://www.w3.org/1999/xlink">
	<desc>
			Created with Pixso.
	</desc>
	<defs/>
	<path id="MP" d="M0 0L0 47.2L2.4 47.2L2.4 0L0 0ZM4.8 0L4.8 47.2L11.99 47.2L11.99 0L4.8 0ZM14.39 0L14.39 47.2L19.19 47.2L19.19 0L14.39 0ZM26.4 0L26.4 47.2L33.6 47.2L33.6 0L26.4 0ZM36 0L36 47.2L43.19 47.2L43.19 0L36 0ZM45.59 0L45.59 47.2L50.4 47.2L50.4 0L45.59 0ZM8.63 54.17L6.95 54.17L6.95 72.73L8.88 72.73L8.88 58.8L12.63 66.25L13.43 66.25L17.44 58.73L17.44 72.73L19.43 72.73L19.43 54.17L17.83 54.17L13.2 63.3L8.63 54.17ZM39.83 54.17L33.91 54.17L33.91 72.73L36.08 72.73L36.08 64.57L39.99 64.57Q42.88 64.57 44.32 63.12Q44.78 62.67 45.09 62.13Q45.75 60.98 45.75 59.45Q45.75 57.9 45.07 56.75Q44.73 56.17 44.23 55.7Q44.19 55.66 44.15 55.62Q42.72 54.17 39.83 54.17ZM42.65 61.85Q41.77 62.73 39.75 62.73L36.08 62.73L36.08 56.17L39.83 56.17Q41.58 56.17 42.55 57.04Q42.6 57.08 42.65 57.12Q42.9 57.35 43.08 57.63Q43.6 58.4 43.6 59.53Q43.6 60.69 43.04 61.44Q42.87 61.66 42.65 61.85Z" fill="#FFFFFF" fill-opacity="1.000000" fill-rule="evenodd"/>
</svg>
